Coordinates
version=1
nRows=13
nColumns=22
inDegrees=yes

Units are S.I. units (second, meters, Newtons, ...)
If the header above contains a line with 'inDegrees', this indicates whether rotational values are in degrees (yes) or radians (no).

endheader
time	pelvis_tilt	pelvis_list	pelvis_rotation	pelvis_tx	pelvis_ty	pelvis_tz	hip_flexion_r	hip_adduction_r	hip_rotation_r	knee_angle_r	ankle_angle_r	subtalar_angle_r	hip_flexion_l	hip_adduction_l	hip_rotation_l	knee_angle_l	ankle_angle_l	subtalar_angle_l	lumbar_extension	lumbar_bending	lumbar_rotation
      2.51000000	     -1.35004855	     -1.78844793	     10.09070663	     -0.49726493	      0.93649167	      0.31570391	     28.63381286	      2.22839608	      5.93595491	    -21.48788340	      7.84471143	      6.04927493	     -1.30304563	      5.82197002	     10.86834594	    -19.34455817	     17.62510794	    -10.30700999	     -6.91317977	      1.40010830	     -7.11899322
      2.52000000	     -1.33208023	     -1.86495042	     10.32906173	     -0.48863006	      0.93514651	      0.31439932	     28.40621019	      2.37847485	      6.36064672	    -19.48639114	      7.97773040	      6.34586769	     -1.89329516	      5.69539228	     11.11373986	    -19.38451339	     17.92741771	    -10.29657834	     -6.88170650	      1.47739203	     -7.14408100
      2.53000000	     -1.33042628	     -1.94823111	     10.56580527	     -0.47988606	      0.93376110	      0.31309880	     28.22951352	      2.52796126	      6.73417495	    -17.80498518	      8.08241316	      6.57164795	     -2.47140664	      5.55920123	     11.34885158	    -19.42384634	     18.21053651	    -10.29434200	     -6.82277504	      1.56141701	     -7.16997606
      2.54000000	     -1.33380625	     -2.02846705	     10.79588964	     -0.47103190	      0.93236836	      0.31180194	     28.11051609	      2.67470505	      7.02277998	    -16.50910627	      8.16277622	      6.69794840	     -3.05192055	      5.42389357	     11.57700622	    -19.46122708	     18.45690049	    -10.28544767	     -6.75272473	      1.64336358	     -7.18447170
      2.55000000	     -1.36936960	     -2.11265082	     11.01660409	     -0.46209693	      0.93093821	      0.31050355	     28.09761309	      2.82375712	      7.19730311	    -15.64958485	      8.16682398	      6.70138668	     -3.58587107	      5.29398968	     11.81194271	    -19.53078770	     18.68961086	    -10.29461082	     -6.64279457	      1.72808080	     -7.18981094
      2.56000000	     -1.37026796	     -2.20593476	     11.23337970	     -0.45300614	      0.92960716	      0.30919328	     28.10918548	      2.99441909	      7.23551786	    -15.22846564	      8.13805663	      6.56719272	     -4.16567516	      5.13935801	     12.02163634	    -19.58996972	     18.85060628	    -10.26635734	     -6.56055853	      1.83549779	     -7.19750947
      2.57000000	     -1.36968096	     -2.31182664	     11.42400475	     -0.44377092	      0.92833429	      0.30789856	     28.19426792	      3.20039838	      7.17291682	    -15.26173098	      8.01639097	      6.09499804	     -4.74492890	      4.97098191	     12.21545042	    -19.66105562	     18.93037745	    -10.17517586	     -6.46834152	      1.96349121	     -7.17598315
      2.58000000	     -1.41348974	     -2.43771194	     11.61001413	     -0.43446422	      0.92705630	      0.30659258	     28.38982299	      3.42627068	      7.04760147	    -15.69548397	      7.72169150	      5.50724272	     -5.23569981	      4.79944969	     12.42772523	    -19.80768363	     19.01659134	    -10.09734730	     -6.31864002	      2.11116457	     -7.16192838
      2.59000000	     -1.45217232	     -2.60566570	     11.79210026	     -0.42504144	      0.92588254	      0.30525869	     28.61926790	      3.69886086	      6.87692326	    -16.44467348	      7.27473673	      4.89588992	     -5.68466381	      4.59020922	     12.64642654	    -20.03352021	     19.04545683	     -9.98341907	     -6.15998117	      2.31834507	     -7.13766941
      2.60000000	     -1.48779348	     -2.79282393	     11.94977785	     -0.41549109	      0.92484064	      0.30394044	     28.86839949	      4.01007255	      6.74827867	    -17.43474810	      6.66338686	      4.22143082	     -6.09190238	      4.36477723	     12.81781800	    -20.33425746	     19.00388236	     -9.80135754	     -5.99460680	      2.55318403	     -7.11436989
      2.61000000	     -1.51469729	     -3.03605826	     12.10087262	     -0.40583302	      0.92395912	      0.30259268	     29.10708164	      4.38605746	      6.67675458	    -18.55140266	      5.94533312	      3.61777260	     -6.42874604	      4.09406054	     12.99002980	    -20.76044021	     18.89648624	     -9.54666226	     -5.82209526	      2.86443365	     -7.07138793
      2.62000000	     -1.52392864	     -3.31354093	     12.23160769	     -0.39605919	      0.92328335	      0.30124101	     29.31179988	      4.81642380	      6.69305384	    -19.72414042	      5.16786324	      3.12481461	     -6.70294666	      3.79763733	     13.11827896	    -21.31517790	     18.69622582	     -9.19555488	     -5.65801813	      3.22626182	     -7.02421991
      2.63000000	     -1.50094418	     -3.63638624	     12.35423983	     -0.38620498	      0.92285768	      0.29983887	     29.43874877	      5.30552337	      6.80241155	    -20.85711214	      4.40142528	      2.87811572	     -6.89498273	      3.47109020	     13.21866846	    -22.05276748	     18.35396400	     -8.81120575	     -5.52086598	      3.65865807	     -6.95444473
